<svg width="512" height="512" viewBox="0 0 680 680" xmlns="http://www.w3.org/2000/svg">
  <rect width="680" height="680" fill="#e6e6e6"/>
  <rect x="80" y="80" width="220" height="220" rx="24" fill="#111111"/>
  <rect x="104" y="104" width="172" height="172" rx="14" fill="#e6e6e6"/>
  <rect x="128" y="128" width="124" height="124" rx="8" fill="#111111"/>
  <rect x="380" y="80" width="220" height="220" rx="24" fill="#111111"/>
  <rect x="404" y="104" width="172" height="172" rx="14" fill="#e6e6e6"/>
  <rect x="428" y="128" width="124" height="124" rx="8" fill="#111111"/>
  <rect x="80" y="380" width="220" height="220" rx="24" fill="#111111"/>
  <rect x="104" y="404" width="172" height="172" rx="14" fill="#e6e6e6"/>
  <rect x="128" y="428" width="124" height="124" rx="8" fill="#111111"/>
  <rect x="384" y="384" width="52" height="52" rx="8" fill="#111111"/>
  <rect x="452" y="384" width="52" height="52" rx="8" fill="#111111"/>
  <rect x="520" y="384" width="52" height="52" rx="8" fill="#111111"/>
  <rect x="384" y="452" width="52" height="52" rx="8" fill="#111111"/>
  <rect x="452" y="452" width="52" height="52" rx="8" fill="#e6e6e6" stroke="#111111" stroke-width="6"/>
  <rect x="520" y="452" width="52" height="52" rx="8" fill="#111111"/>
  <rect x="384" y="520" width="52" height="52" rx="8" fill="#111111"/>
  <rect x="452" y="520" width="52" height="52" rx="8" fill="#111111"/>
  <rect x="520" y="520" width="52" height="52" rx="8" fill="#111111"/>
</svg>
